<svg  viewBox="0 0 218 32" fill="none" xmlns="http://www.w3.org/2000/svg">
<path d="M0 0H218V23.9074C218 28.3257 214.418 31.9074 210 31.9074H8C3.58173 31.9074 0 28.3257 0 23.9074V0Z" fill="#0F52BA"/>
<path d="M88.852 21.14C88.1053 21.14 87.41 21.0187 86.766 20.776C86.1313 20.524 85.576 20.174 85.1 19.726C84.6333 19.2687 84.2693 18.732 84.008 18.116C83.7467 17.5 83.616 16.828 83.616 16.1C83.616 15.372 83.7467 14.7 84.008 14.084C84.2693 13.468 84.638 12.936 85.114 12.488C85.59 12.0307 86.1453 11.6807 86.78 11.438C87.4147 11.186 88.11 11.06 88.866 11.06C89.6687 11.06 90.4013 11.2 91.064 11.48C91.7267 11.7507 92.2867 12.1567 92.744 12.698L91.568 13.804C91.2133 13.4213 90.8167 13.1367 90.378 12.95C89.9393 12.754 89.4633 12.656 88.95 12.656C88.4367 12.656 87.9653 12.74 87.536 12.908C87.116 13.076 86.7473 13.314 86.43 13.622C86.122 13.93 85.8793 14.294 85.702 14.714C85.534 15.134 85.45 15.596 85.45 16.1C85.45 16.604 85.534 17.066 85.702 17.486C85.8793 17.906 86.122 18.27 86.43 18.578C86.7473 18.886 87.116 19.124 87.536 19.292C87.9653 19.46 88.4367 19.544 88.95 19.544C89.4633 19.544 89.9393 19.4507 90.378 19.264C90.8167 19.068 91.2133 18.774 91.568 18.382L92.744 19.502C92.2867 20.034 91.7267 20.44 91.064 20.72C90.4013 21 89.664 21.14 88.852 21.14ZM98.8748 21.14C98.1095 21.14 97.4048 21.014 96.7608 20.762C96.1168 20.51 95.5568 20.16 95.0808 19.712C94.6048 19.2547 94.2361 18.7227 93.9748 18.116C93.7135 17.5 93.5828 16.828 93.5828 16.1C93.5828 15.372 93.7135 14.7047 93.9748 14.098C94.2361 13.482 94.6048 12.95 95.0808 12.502C95.5568 12.0447 96.1168 11.69 96.7608 11.438C97.4048 11.186 98.1048 11.06 98.8608 11.06C99.6261 11.06 100.326 11.186 100.961 11.438C101.605 11.69 102.165 12.0447 102.641 12.502C103.117 12.95 103.485 13.482 103.747 14.098C104.008 14.7047 104.139 15.372 104.139 16.1C104.139 16.828 104.008 17.5 103.747 18.116C103.485 18.732 103.117 19.264 102.641 19.712C102.165 20.16 101.605 20.51 100.961 20.762C100.326 21.014 99.6308 21.14 98.8748 21.14ZM98.8608 19.544C99.3555 19.544 99.8128 19.46 100.233 19.292C100.653 19.124 101.017 18.886 101.325 18.578C101.633 18.2607 101.871 17.8967 102.039 17.486C102.216 17.066 102.305 16.604 102.305 16.1C102.305 15.596 102.216 15.1387 102.039 14.728C101.871 14.308 101.633 13.944 101.325 13.636C101.017 13.3187 100.653 13.076 100.233 12.908C99.8128 12.74 99.3555 12.656 98.8608 12.656C98.3661 12.656 97.9088 12.74 97.4888 12.908C97.0781 13.076 96.7141 13.3187 96.3968 13.636C96.0888 13.944 95.8461 14.308 95.6688 14.728C95.5008 15.1387 95.4168 15.596 95.4168 16.1C95.4168 16.5947 95.5008 17.052 95.6688 17.472C95.8461 17.892 96.0888 18.2607 96.3968 18.578C96.7048 18.886 97.0688 19.124 97.4888 19.292C97.9088 19.46 98.3661 19.544 98.8608 19.544ZM106.068 21V11.2H107.566L111.85 18.354H111.066L115.28 11.2H116.778L116.792 21H115.07L115.056 13.902H115.42L111.836 19.88H111.024L107.384 13.902H107.804V21H106.068ZM119.439 21V11.2H123.471C124.339 11.2 125.081 11.34 125.697 11.62C126.322 11.9 126.803 12.3013 127.139 12.824C127.475 13.3467 127.643 13.9673 127.643 14.686C127.643 15.4047 127.475 16.0253 127.139 16.548C126.803 17.0707 126.322 17.472 125.697 17.752C125.081 18.032 124.339 18.172 123.471 18.172H120.447L121.259 17.318V21H119.439ZM121.259 17.514L120.447 16.632H123.387C124.19 16.632 124.792 16.464 125.193 16.128C125.604 15.7827 125.809 15.302 125.809 14.686C125.809 14.0607 125.604 13.58 125.193 13.244C124.792 12.908 124.19 12.74 123.387 12.74H120.447L121.259 11.844V17.514ZM129.461 21V11.2H133.493C134.361 11.2 135.103 11.34 135.719 11.62C136.344 11.9 136.825 12.3013 137.161 12.824C137.497 13.3467 137.665 13.9673 137.665 14.686C137.665 15.4047 137.497 16.0253 137.161 16.548C136.825 17.0613 136.344 17.458 135.719 17.738C135.103 18.0087 134.361 18.144 133.493 18.144H130.469L131.281 17.318V21H129.461ZM135.873 21L133.395 17.444H135.341L137.833 21H135.873ZM131.281 17.514L130.469 16.646H133.409C134.211 16.646 134.813 16.4733 135.215 16.128C135.625 15.7827 135.831 15.302 135.831 14.686C135.831 14.0607 135.625 13.58 135.215 13.244C134.813 12.908 134.211 12.74 133.409 12.74H130.469L131.281 11.844V17.514ZM138.315 21L142.725 11.2H144.517L148.941 21H147.037L143.243 12.166H143.971L140.191 21H138.315ZM140.345 18.732L140.835 17.304H146.127L146.617 18.732H140.345ZM150.187 21V11.2H154.219C155.087 11.2 155.829 11.34 156.445 11.62C157.07 11.9 157.551 12.3013 157.887 12.824C158.223 13.3467 158.391 13.9673 158.391 14.686C158.391 15.4047 158.223 16.0253 157.887 16.548C157.551 17.0613 157.07 17.458 156.445 17.738C155.829 18.0087 155.087 18.144 154.219 18.144H151.195L152.007 17.318V21H150.187ZM156.599 21L154.121 17.444H156.067L158.559 21H156.599ZM152.007 17.514L151.195 16.646H154.135C154.938 16.646 155.54 16.4733 155.941 16.128C156.352 15.7827 156.557 15.302 156.557 14.686C156.557 14.0607 156.352 13.58 155.941 13.244C155.54 12.908 154.938 12.74 154.135 12.74H151.195L152.007 11.844V17.514Z" fill="white"/>
<path opacity="0.737212" fill-rule="evenodd" clip-rule="evenodd" d="M59 9L57 11.7V21.15C57 21.8956 57.597 22.5 58.3333 22.5H67.6667C68.403 22.5 69 21.8956 69 21.15V11.7L67 9H59Z" stroke="white" stroke-width="2" stroke-linecap="round" stroke-linejoin="round"/>
<path opacity="0.737212" d="M57 12.375H69" stroke="white" stroke-width="2" stroke-linecap="round" stroke-linejoin="round"/>
<path opacity="0.737212" d="M66 15C66 16.2426 64.8247 17.25 63.375 17.25C61.9253 17.25 60.75 16.2426 60.75 15" stroke="white" stroke-width="2" stroke-linecap="round" stroke-linejoin="round"/>
</svg>
